<?xml version="1.0" encoding="utf-8"?>
<!-- Generator: Adobe Illustrator 25.0.1, SVG Export Plug-In . SVG Version: 6.00 Build 0)  -->
<svg version="1.1" id="Layer_1" xmlns="http://www.w3.org/2000/svg" xmlns:xlink="http://www.w3.org/1999/xlink" x="0px" y="0px"
	 viewBox="0 0 40 40" style="enable-background:new 0 0 40 40;" xml:space="preserve">
<style type="text/css">
	.st0{opacity:0.4;fill:#FFFFFF;}
</style>
<path class="st0" d="M40,40V0H0v40H40z M5.8,19.9v-0.1v-0.2v-0.1L6,19.3l0,0v-0.1L6.1,19c0,0,0-0.1,0.1-0.1l0.1-0.1l0.1-0.1v-0.1
	l9.7-9.7C16.9,8,18.2,8,19,8.7s0.9,2.1,0.1,2.9L19,11.7l-6.1,6.1h19.2c1.1,0,2.1,0.9,2.1,2.1c0,0.4-0.1,0.8-0.3,1.1
	c-0.4,0.6-1,0.9-1.7,0.9H12.9l6.2,6.2c0.8,0.8,0.9,2.1,0.1,2.9s-2.1,0.9-2.9,0.1L16.2,31l-9.7-9.7v-0.1l-0.1-0.1L6.3,21l-0.2,0
	L6,20.9v-0.1l0,0v-0.1c0-0.1,0-0.1,0-0.2v-0.1c0-0.1,0-0.1,0-0.2v-0.3C6,19.9,5.8,19.9,5.8,19.9z"/>
</svg>
