<?xml version="1.0" encoding="utf-8"?>
<!-- Generator: Adobe Illustrator 25.0.1, SVG Export Plug-In . SVG Version: 6.00 Build 0)  -->
<svg version="1.1" id="Layer_1" xmlns="http://www.w3.org/2000/svg" xmlns:xlink="http://www.w3.org/1999/xlink" x="0px" y="0px"
	 viewBox="0 0 40 40" style="enable-background:new 0 0 40 40;" xml:space="preserve">
<style type="text/css">
	.st0{opacity:0.4;}
</style>
<path class="st0" d="M40,40V0H0v40H40z M8.3,20L8.3,20L8.3,20L8.3,20L8.3,20L8.3,20L8.3,20L8.3,20L8.3,20l5.8-5.9
	c0.1-0.1,0.4-0.1,0.5,0c0,0,0,0,0,0c0.1,0.1,0.1,0.4,0,0.5c0,0,0,0,0,0l-5,5h21.9c0.2,0,0.4,0.2,0.4,0.4c0,0.2-0.2,0.4-0.4,0.4H9.5
	l5,5l0,0c0.1,0.1,0.1,0.4,0,0.5c0,0,0,0,0,0c-0.1,0.1-0.2,0.1-0.3,0.1c-0.1,0-0.2,0-0.3-0.1l-5.6-5.6l0,0l0,0l0,0l0,0l0,0l0,0l0,0
	V20H8.3z"/>
</svg>
