<svg id="Layer_1" data-name="Layer 1" xmlns="http://www.w3.org/2000/svg" viewBox="0 0 40 40"><defs><style>.cls-1{opacity:0.4;}.cls-2{fill:#fff;}</style></defs><g class="cls-1"><path class="cls-2" d="M40,40V0H0V40ZM20,5.81A14.19,14.19,0,1,1,5.81,20h0A14.19,14.19,0,0,1,20,5.81Z"/><path class="cls-2" d="M20,32.11A12.12,12.12,0,1,0,7.88,20h0A12.12,12.12,0,0,0,20,32.11Zm-7.25-13,5.56-5.56a1.23,1.23,0,0,1,.85-.35,1.21,1.21,0,0,1,1.2,1.22,1.19,1.19,0,0,1-.35.84l-3.58,3.58H27.76A1.21,1.21,0,0,1,29,20a1.19,1.19,0,0,1-1.2,1.2H16.61l3.58,3.59a1.2,1.2,0,1,1-1.7,1.7l-5.71-5.72a1.32,1.32,0,0,1-.37-.81A1.34,1.34,0,0,1,12.75,19.14Z"/></g></svg>