<?xml version="1.0" encoding="utf-8"?>
<!-- Generator: Adobe Illustrator 25.0.1, SVG Export Plug-In . SVG Version: 6.00 Build 0)  -->
<svg version="1.1" id="Layer_1" xmlns="http://www.w3.org/2000/svg" xmlns:xlink="http://www.w3.org/1999/xlink" x="0px" y="0px"
	 viewBox="0 0 40 40" style="enable-background:new 0 0 40 40;" xml:space="preserve">
<style type="text/css">
	.st0{opacity:0.4;}
</style>
<g class="st0">
	<path d="M40,40V0H0v40H40z M20,5.8c7.8,0,14.2,6.4,14.2,14.2S27.8,34.2,20,34.2S5.8,27.8,5.8,20l0,0C5.8,12.2,12.2,5.8,20,5.8
		L20,5.8z"/>
	<path d="M20,32.1c6.7,0,12.1-5.4,12.1-12.1c0-6.7-5.4-12.1-12.1-12.1S7.9,13.3,7.9,20c0,0,0,0,0,0l0,0C7.9,26.7,13.3,32.1,20,32.1z
		 M12.8,19.1l5.6-5.6c0.2-0.2,0.5-0.3,0.9-0.4c0.7,0,1.2,0.6,1.2,1.2c0,0,0,0,0,0c0,0.3-0.1,0.6-0.4,0.8l-3.6,3.6h11.3
		c0.7,0,1.2,0.5,1.2,1.2c0,0.7-0.5,1.2-1.2,1.2c0,0,0,0,0,0H16.6l3.6,3.6c0.5,0.5,0.5,1.2,0,1.7s-1.2,0.5-1.7,0l0,0l-5.7-5.7
		c-0.2-0.2-0.3-0.5-0.4-0.8C12.4,19.7,12.5,19.4,12.8,19.1L12.8,19.1z"/>
</g>
</svg>
