<svg id="Layer_1" data-name="Layer 1" xmlns="http://www.w3.org/2000/svg" viewBox="0 0 40 40"><defs><style>.cls-1{opacity:0.4;}</style></defs><g class="cls-1"><path d="M0,0V40H40V0ZM20,34.19A14.19,14.19,0,1,1,34.19,20h0A14.19,14.19,0,0,1,20,34.19Z"/><path d="M20,7.89A12.12,12.12,0,1,0,32.12,20h0A12.12,12.12,0,0,0,20,7.89Zm7.25,13-5.56,5.56a1.23,1.23,0,0,1-.85.35,1.21,1.21,0,0,1-1.2-1.22,1.19,1.19,0,0,1,.35-.84l3.58-3.58H12.24A1.21,1.21,0,0,1,11,20a1.19,1.19,0,0,1,1.2-1.2H23.39l-3.58-3.59a1.2,1.2,0,1,1,1.7-1.7l5.71,5.72a1.32,1.32,0,0,1,.37.81A1.34,1.34,0,0,1,27.25,20.86Z"/></g></svg>