<?xml version="1.0" encoding="utf-8"?>
<!-- Generator: Adobe Illustrator 25.0.1, SVG Export Plug-In . SVG Version: 6.00 Build 0)  -->
<svg version="1.1" id="Layer_1" xmlns="http://www.w3.org/2000/svg" xmlns:xlink="http://www.w3.org/1999/xlink" x="0px" y="0px"
	 viewBox="0 0 40 40" style="enable-background:new 0 0 40 40;" xml:space="preserve">
<style type="text/css">
	.st0{opacity:0.4;}
</style>
<path class="st0" d="M0,0v40h40V0H0z M29.5,20.9L19.1,31.3c-0.2,0.2-0.6,0.4-0.9,0.4c-0.2,0-0.3,0-0.5-0.1c-0.5-0.2-0.8-0.7-0.8-1.2
	l3-7.1h-9.7v-6.5h9.7l-3-7.1c0-0.7,0.6-1.3,1.3-1.3c0.3,0,0.6,0.1,0.9,0.4l10.4,10.4c0.2,0.2,0.4,0.6,0.4,0.9
	C29.8,20.3,29.7,20.7,29.5,20.9z"/>
</svg>
