<?xml version="1.0" encoding="utf-8"?>
<!-- Generator: Adobe Illustrator 25.0.1, SVG Export Plug-In . SVG Version: 6.00 Build 0)  -->
<svg version="1.1" id="Layer_1" xmlns="http://www.w3.org/2000/svg" xmlns:xlink="http://www.w3.org/1999/xlink" x="0px" y="0px"
	 viewBox="0 0 40 40" style="enable-background:new 0 0 40 40;" xml:space="preserve">
<style type="text/css">
	.st0{opacity:0.4;}
</style>
<path class="st0" d="M0,0v40h40V0H0z M34.2,20.1v0.1v0.2v0.1l-0.1,0.2l0,0v0.1L34,21c0,0,0,0.1-0.1,0.1l-0.1,0.1l-0.1,0.1v0.1
	L24,31.1c-0.8,0.8-2.1,0.9-2.9,0.1s-0.9-2.1-0.1-2.9l0.1-0.1l6.2-6.2H7.9c-1.1,0-2.1-0.9-2.1-2.1c0-0.4,0.1-0.8,0.3-1.1
	c0.4-0.6,1-0.9,1.7-0.9H27l-6.2-6.2c-0.8-0.8-0.9-2.1-0.1-2.9s2.1-0.9,2.9-0.1l0.1,0.1l9.7,9.7v0.1l0.1,0.1l0.1,0.1l0.1,0.1l0.1,0.1
	v0.1l0,0v0.1c0,0.1,0,0.1,0,0.2v0.1c0,0.1,0,0.1,0,0.2V20L34.2,20.1z"/>
</svg>
