<?xml version="1.0" encoding="utf-8"?>
<!-- Generator: Adobe Illustrator 25.0.1, SVG Export Plug-In . SVG Version: 6.00 Build 0)  -->
<svg version="1.1" id="Layer_1" xmlns="http://www.w3.org/2000/svg" xmlns:xlink="http://www.w3.org/1999/xlink" x="0px" y="0px"
	 viewBox="0 0 40 40" style="enable-background:new 0 0 40 40;" xml:space="preserve">
<style type="text/css">
	.st0{opacity:0.4;fill:#FFFFFF;}
</style>
<path class="st0" d="M40,40V0H0v40H40z M10.6,19.1L20.9,8.7c0.2-0.2,0.6-0.4,0.9-0.4c0.2,0,0.3,0,0.5,0.1c0.5,0.2,0.8,0.7,0.8,1.2
	l-3,7.1h9.7v6.5h-9.7l3,7.1c0,0.7-0.6,1.3-1.3,1.3c-0.3,0-0.6-0.1-0.9-0.4L10.6,20.9c-0.2-0.2-0.4-0.6-0.4-0.9
	C10.2,19.7,10.3,19.3,10.6,19.1z"/>
</svg>
